<svg width="240" height="67" viewBox="0 0 240 67" fill="none" xmlns="http://www.w3.org/2000/svg">
<path fill-rule="evenodd" clip-rule="evenodd" d="M145.588 28.0704H137.165V49.9369C137.165 51.7972 137.501 53.0933 138.172 53.8253C138.843 54.5572 140.171 54.9231 142.155 54.9231C143.681 54.9231 144.962 54.8317 146 54.6487V65.6734C143.223 66.5578 140.324 67 137.302 67C131.992 67 128.063 65.742 125.515 63.226C122.966 60.71 121.692 56.9207 121.692 51.8582V28.0704H111.758V66.4968H96.3315V28.0704H88V17H145.588V28.0704Z" fill="#FADB3F"/>
<path d="M0 52.7123V28.7458C0.0614525 25.8575 1.32123 22.9693 3.77933 20.081C6.85196 16.5782 10.662 14.7961 15.2095 14.7346H18.2514V26.6257H15.2095C13.4274 26.8101 12.352 27.6704 11.9832 29.2067V52.5279C11.9832 53.2039 12.4134 53.8492 13.2737 54.4637C13.8883 54.8324 14.595 55.0168 15.3939 55.0168H18.2514V67H15.3939C9.80168 67 5.43855 64.5112 2.30447 59.5335C0.768156 57.0754 0 54.8017 0 52.7123ZM23.1369 67V1H35.9497L35.8575 67H23.1369Z" fill="#FADB3F"/>
<path d="M46.0636 52.7123V28.5615C46.125 25.5503 47.5077 22.6006 50.2116 19.7123C53.5301 16.2709 57.5859 14.5196 62.3792 14.4581V26.0726C60.5971 26.0726 59.368 26.8408 58.6921 28.3771C58.5077 28.7458 58.4155 29.0838 58.4155 29.3911V34H72.1502V29.4832C72.0887 27.2095 70.491 26.0726 67.3569 26.0726V14.4581C71.8429 14.4581 75.7759 15.9944 79.1558 19.067C82.1055 21.7709 83.6111 24.905 83.6725 28.4693V45.8911H58.4155V52.7123C58.8457 54.4944 60.1977 55.4777 62.4714 55.662V67C56.6949 67 52.1166 64.6341 48.7368 59.9022C46.9546 57.3827 46.0636 54.986 46.0636 52.7123ZM67.3569 67V55.7542C70.6753 55.6927 72.7954 54.1257 73.7172 51.0531L83.7647 54.8324C82.8429 58.7654 80.5077 61.9302 76.7591 64.3268C73.8708 66.1089 70.7368 67 67.3569 67Z" fill="#FADB3F"/>
<path d="M153.525 67V28.499C153.525 25.4066 154.917 22.376 157.7 19.4072C161.102 15.8818 165.339 14.0882 170.41 14.0264V26.3652C167.812 26.6745 166.39 27.8805 166.143 29.9834V67H153.525ZM174.678 26.3652V14.0264C180.677 14.0264 185.409 16.4076 188.872 21.1699C190.728 23.7676 191.655 26.2106 191.655 28.499V67H179.038V29.9834C179.038 27.9424 177.894 26.7673 175.605 26.458C175.296 26.3962 174.987 26.3652 174.678 26.3652Z" fill="#FADB3F"/>
<path d="M201.556 52.6201V28.3135C201.618 25.2829 203.01 22.3141 205.731 19.4072C209.071 15.9437 213.153 14.181 217.977 14.1191V25.8086C216.183 25.8086 214.946 26.5817 214.266 28.1279C214.08 28.499 213.988 28.8392 213.988 29.1484V33.7871H227.811V29.2412C227.749 26.9528 226.141 25.8086 222.987 25.8086V14.1191C227.502 14.1191 231.46 15.6654 234.862 18.7578C237.83 21.4792 239.346 24.6335 239.408 28.2207V45.7549H213.988V52.6201C214.421 54.4137 215.781 55.4033 218.07 55.5889V67C212.256 67 207.648 64.6188 204.246 59.8564C202.453 57.3206 201.556 54.9085 201.556 52.6201ZM222.987 67V55.6816C226.327 55.6198 228.46 54.0426 229.388 50.9502L239.5 54.7539C238.573 58.7122 236.222 61.8975 232.45 64.3096C229.543 66.1032 226.388 67 222.987 67Z" fill="#FADB3F"/>
<path d="M92 27.9052V17L98.8627 16.8452V13.5272C98.8627 10.8615 100.203 8.13901 102.882 5.35983C106.281 1.90005 110.464 0.113436 115.431 0H122L119.059 10.9749H115.529C113.569 11.145 112.392 11.9958 112 13.5272V16.8452L119.059 17V27.9052H112H98.8627H92Z" fill="#FADB3F"/>
<circle cx="130.5" cy="7.5" r="7.5" fill="#FADB3F"/>
</svg>
